<svg viewBox="0 0 23 23" fill="none" xmlns="http://www.w3.org/2000/svg">
  <path d="M11.4999 20.7191C11.3587 20.7187 11.2217 20.6715 11.1102 20.585C7.55793 17.825 5.11099 15.4483 3.39876 13.1036C1.21376 10.1072 0.71543 7.34079 1.91654 4.88107C2.77265 3.12413 5.23237 1.68663 8.10738 2.52357C9.47814 2.91952 10.6741 3.76863 11.4999 4.93218C12.3256 3.76863 13.5216 2.91952 14.8924 2.52357C17.761 1.6994 20.2271 3.12413 21.0832 4.88107C22.2843 7.34079 21.786 10.1072 19.601 13.1036C17.8888 15.4483 15.4418 17.825 11.8896 20.585C11.7781 20.6715 11.641 20.7187 11.4999 20.7191ZM6.47182 3.56496C5.78773 3.53834 5.10931 3.69852 4.50937 4.02831C3.90944 4.35811 3.41065 4.84506 3.06654 5.4369C2.07626 7.46857 2.52349 9.73024 4.43376 12.3433C6.46388 14.9618 8.84108 17.2917 11.4999 19.2688C14.1582 17.2937 16.5354 14.966 18.566 12.3497C20.4827 9.73024 20.9235 7.46857 19.9332 5.44329C19.2943 4.16552 17.3777 3.14968 15.2438 3.75024C14.5595 3.95245 13.9252 4.29567 13.3817 4.75781C12.8381 5.21996 12.3973 5.79079 12.0877 6.43357C12.0395 6.55075 11.9576 6.65097 11.8524 6.72151C11.7472 6.79204 11.6234 6.8297 11.4967 6.8297C11.37 6.8297 11.2462 6.79204 11.141 6.72151C11.0357 6.65097 10.9538 6.55075 10.9057 6.43357C10.5984 5.78918 10.1584 5.21702 9.61444 4.75458C9.07053 4.29215 8.43503 3.94989 7.7496 3.75024C7.3343 3.62962 6.90427 3.56726 6.47182 3.56496Z" fill="#9D9D9D" />
</svg>
