<svg viewBox="0 0 22 22" fill="none" xmlns="http://www.w3.org/2000/svg">
  <path d="M17.1109 1.22217H4.88873C4.56457 1.22217 4.2537 1.35094 4.02448 1.58015C3.79527 1.80936 3.6665 2.12024 3.6665 2.44439V19.5555C3.6665 19.8797 3.79527 20.1905 4.02448 20.4197C4.2537 20.649 4.56457 20.7777 4.88873 20.7777H17.1109C17.4351 20.7777 17.746 20.649 17.9752 20.4197C18.2044 20.1905 18.3332 19.8797 18.3332 19.5555V2.44439C18.3332 2.12024 18.2044 1.80936 17.9752 1.58015C17.746 1.35094 17.4351 1.22217 17.1109 1.22217ZM7.94428 15.8888H6.72206V14.6666H7.94428V15.8888ZM7.94428 13.4444H6.72206V12.2222H7.94428V13.4444ZM7.94428 10.9999H6.72206V9.77772H7.94428V10.9999ZM7.94428 8.5555H6.72206V7.33328H7.94428V8.5555ZM7.94428 6.11106H6.72206V4.88883H7.94428V6.11106ZM15.2776 15.8888H9.1665V14.6666H15.2776V15.8888ZM15.2776 13.4444H9.1665V12.2222H15.2776V13.4444ZM15.2776 10.9999H9.1665V9.77772H15.2776V10.9999ZM15.2776 8.5555H9.1665V7.33328H15.2776V8.5555ZM15.2776 6.11106H9.1665V4.88883H15.2776V6.11106Z" fill="#3E423A" />
</svg>
