<svg viewBox="0 0 26 26" fill="none" xmlns="http://www.w3.org/2000/svg">
  <path d="M13 11.9165C12.138 11.9165 11.3114 11.5741 10.7019 10.9646C10.0924 10.3551 9.75 9.52846 9.75 8.6665C9.75 7.80455 10.0924 6.9779 10.7019 6.36841C11.3114 5.75891 12.138 5.4165 13 5.4165C13.862 5.4165 14.6886 5.75891 15.2981 6.36841C15.9076 6.9779 16.25 7.80455 16.25 8.6665C16.25 9.52846 15.9076 10.3551 15.2981 10.9646C14.6886 11.5741 13.862 11.9165 13 11.9165Z" fill="#3E423A" />
  <path d="M6.5 20.5832V19.4998C6.5 18.3506 6.95655 17.2484 7.7692 16.4357C8.58186 15.6231 9.68406 15.1665 10.8333 15.1665H15.1667C16.3159 15.1665 17.4181 15.6231 18.2308 16.4357C19.0435 17.2484 19.5 18.3506 19.5 19.4998V20.5832" fill="#3E423A" />
</svg>
