<svg viewBox="0 0 26 26" fill="none" xmlns="http://www.w3.org/2000/svg">
  <path d="M13 11.9166C12.138 11.9166 11.3114 11.5742 10.7019 10.9647C10.0924 10.3552 9.75 9.52858 9.75 8.66663C9.75 7.80467 10.0924 6.97802 10.7019 6.36853C11.3114 5.75904 12.138 5.41663 13 5.41663C13.862 5.41663 14.6886 5.75904 15.2981 6.36853C15.9076 6.97802 16.25 7.80467 16.25 8.66663C16.25 9.52858 15.9076 10.3552 15.2981 10.9647C14.6886 11.5742 13.862 11.9166 13 11.9166Z" stroke="#9D9D9D" stroke-width="2" stroke-linecap="round" />
  <path d="M6.5 20.5833V19.5C6.5 18.3507 6.95655 17.2485 7.7692 16.4358C8.58186 15.6232 9.68406 15.1666 10.8333 15.1666H15.1667C16.3159 15.1666 17.4181 15.6232 18.2308 16.4358C19.0435 17.2485 19.5 18.3507 19.5 19.5V20.5833" stroke="#9D9D9D" stroke-width="2" stroke-linecap="round" />
</svg>
